<svg width="24" height="24" viewBox="0 0 24 24" fill="none" xmlns="http://www.w3.org/2000/svg">
<g id="Icon">
<path id="Vector" fill-rule="evenodd" clip-rule="evenodd" d="M8.74978 6.3517C8.52482 6.57673 8.39844 6.8819 8.39844 7.2001C8.39844 7.5183 8.52482 7.82346 8.74978 8.0485L12.7014 12.0001L8.74978 15.9517C8.53119 16.178 8.41024 16.4811 8.41297 16.7958C8.41571 17.1104 8.54191 17.4114 8.7644 17.6339C8.98689 17.8564 9.28786 17.9826 9.6025 17.9853C9.91714 17.988 10.2203 17.8671 10.4466 17.6485L15.2466 12.8485C15.4715 12.6235 15.5979 12.3183 15.5979 12.0001C15.5979 11.6819 15.4715 11.3767 15.2466 11.1517L10.4466 6.3517C10.2215 6.12673 9.91638 6.00035 9.59818 6.00035C9.27999 6.00035 8.97482 6.12673 8.74978 6.3517Z" fill="white"/>
</g>
</svg>
