<svg width="24" height="24" viewBox="0 0 24 24" fill="none" xmlns="http://www.w3.org/2000/svg">
<g id="Icon">
<path id="Vector" fill-rule="evenodd" clip-rule="evenodd" d="M15.2502 17.6483C15.4752 17.4233 15.6016 17.1181 15.6016 16.7999C15.6016 16.4817 15.4752 16.1765 15.2502 15.9515L11.2986 11.9999L15.2502 8.0483C15.4688 7.82198 15.5898 7.51886 15.587 7.20422C15.5843 6.88959 15.4581 6.58861 15.2356 6.36612C15.0131 6.14363 14.7121 6.01743 14.3975 6.01469C14.0829 6.01196 13.7797 6.13291 13.5534 6.3515L8.75342 11.1515C8.52845 11.3765 8.40207 11.6817 8.40207 11.9999C8.40207 12.3181 8.52845 12.6233 8.75342 12.8483L13.5534 17.6483C13.7785 17.8733 14.0836 17.9996 14.4018 17.9996C14.72 17.9996 15.0252 17.8733 15.2502 17.6483Z" fill="white"/>
</g>
</svg>
